<svg xmlns="http://www.w3.org/2000/svg" width="78.621" height="78.621" viewBox="0 0 78.621 78.621"><g transform="translate(-89.188 -89.82)"><circle cx="39.311" cy="39.311" r="39.311" transform="translate(89.188 89.82)" fill="#333" opacity="0.1"/><g transform="translate(103.989 103.475)"><path d="M223.539,146.717a6.08,6.08,0,0,0-.711-1.755,4.136,4.136,0,0,0-1.165-1.258,3.751,3.751,0,0,0-1.615-.617,5.534,5.534,0,0,0-2.093.145,7.828,7.828,0,0,0-1.081.347q-.538.216-1.055.455l.015-4.891-4.055.971.032,23.473,4.048-.975-.022-15.162c.241-.115.488-.222.742-.322a6.194,6.194,0,0,1,.816-.254,1.685,1.685,0,0,1,1.52.166,2.05,2.05,0,0,1,.658,1.121,5.6,5.6,0,0,1,.141,1q.029.54.032,1.028l.027,11.48,4.049-.975-.012-11.657A9.79,9.79,0,0,0,223.539,146.717Z" transform="translate(-192.642 -139.144)" fill="#fff"/><path d="M261.888,167.327a5.123,5.123,0,0,0,2.186.839,7.691,7.691,0,0,0,2.954-.209,13.045,13.045,0,0,0,2.509-.863,12.511,12.511,0,0,0,1.812-1.012l-1.065-3.108a9.047,9.047,0,0,1-1.577.854,11.029,11.029,0,0,1-1.73.575,3.512,3.512,0,0,1-2.139.012A2.474,2.474,0,0,1,263.62,163a20.962,20.962,0,0,0,3.542-1.17,9.624,9.624,0,0,0,2.634-1.656,5.274,5.274,0,0,0,1.473-2.18,4.82,4.82,0,0,0,.057-2.745,4.186,4.186,0,0,0-.749-1.617,3.663,3.663,0,0,0-1.256-1.034,4.418,4.418,0,0,0-1.616-.445,5.724,5.724,0,0,0-1.832.154,8.149,8.149,0,0,0-3.332,1.622,8.793,8.793,0,0,0-2.213,2.689,9.5,9.5,0,0,0-1.028,3.31,9.794,9.794,0,0,0,.2,3.517,8.227,8.227,0,0,0,.883,2.231A5.148,5.148,0,0,0,261.888,167.327ZM263.8,157.25a3.524,3.524,0,0,1,2.193-1.578q1.468-.354,1.782.95a1.743,1.743,0,0,1-.007.806,1.869,1.869,0,0,1-.591.89,6.058,6.058,0,0,1-1.469.943,15.519,15.519,0,0,1-2.649.94A4.937,4.937,0,0,1,263.8,157.25Z" transform="translate(-226.953 -148.539)" fill="#fff"/><path d="M274.024,229.614a8.629,8.629,0,0,0-.849-2.211,5.369,5.369,0,0,0-1.369-1.625,4.608,4.608,0,0,0-1.877-.87,5.255,5.255,0,0,0-2.366.081,4.974,4.974,0,0,0-1.136.417,6.634,6.634,0,0,0-1,.642l0-7.416-4.054,1.02.059,21.535a8.748,8.748,0,0,0,1.815.2,17.042,17.042,0,0,0,1.75-.077,12.817,12.817,0,0,0,1.429-.215q.614-.134.859-.193a8.911,8.911,0,0,0,3.359-1.571A9.131,9.131,0,0,0,273,236.69a9.564,9.564,0,0,0,1.026-7.076Zm-3.812,3.391a6.387,6.387,0,0,1-.542,1.985,4.893,4.893,0,0,1-1.156,1.587,3.778,3.778,0,0,1-1.682.894l-.489.118a3.292,3.292,0,0,1-.329.065,2.177,2.177,0,0,1-.268.021c-.086,0-.185.007-.3.015v-7.878a2.5,2.5,0,0,1,.963-.836,4.922,4.922,0,0,1,.959-.375,1.755,1.755,0,0,1,1.78.347,4.127,4.127,0,0,1,.926,1.934A6.124,6.124,0,0,1,270.212,233.005Z" transform="translate(-228.505 -196.627)" fill="#fff"/><path d="M219.828,251.143a8.416,8.416,0,0,1-1.564.549,1.989,1.989,0,0,1-1.285-.021,1.427,1.427,0,0,1-.7-.694,3.431,3.431,0,0,1-.295-1.166q-.065-.689-.073-1.434l-.027-12.186-4.049.976.012,12.362q-.015,3.4,1.625,4.956t4.848.788a18.305,18.305,0,0,0,1.92-.563,16.051,16.051,0,0,0,1.49-.618q.657-.316,1.172-.627t.943-.558V234.273l-4.049.975Z" transform="translate(-192.684 -207.937)" fill="#fff"/><path d="M175.187,252.4a6.076,6.076,0,0,0-.711-1.755,4.14,4.14,0,0,0-1.165-1.258,3.751,3.751,0,0,0-1.615-.617,5.534,5.534,0,0,0-2.093.145,7.826,7.826,0,0,0-1.081.347q-.538.216-1.055.455l.015-7.22-4.055,1.029.032,22.251,4.048-.976-.022-11.667c.241-.115.488-.222.742-.322a6.19,6.19,0,0,1,.816-.254,1.685,1.685,0,0,1,1.52.166,2.05,2.05,0,0,1,.658,1.121,5.575,5.575,0,0,1,.14,1q.03.54.032,1.028l.027,7.986,4.049-.976-.012-8.162A9.776,9.776,0,0,0,175.187,252.4Z" transform="translate(-157.676 -213.886)" fill="#fff"/><path d="M150.329,166.34a14.648,14.648,0,0,0,.255,2.727,4.949,4.949,0,0,0,.914,2.123,3.31,3.31,0,0,0,1.834,1.168,6.394,6.394,0,0,0,3.042-.143,10.572,10.572,0,0,0,2.2-.761,14.894,14.894,0,0,0,1.641-.942l.09-3.695c-.381.246-1.9,1.126-2.29,1.306a6.624,6.624,0,0,1-1.234.427,2.793,2.793,0,0,1-1.248.071,1.293,1.293,0,0,1-.759-.464,1.98,1.98,0,0,1-.362-.905,6.824,6.824,0,0,1-.077-1.217l-.009-9.138,1.907-.439v-.014l3.881-.912.016-3.512-5.816,1.367.018-4.161-4.055.929.01,4.163-3.744.862-.03.007-.023.005h0a4.651,4.651,0,0,0-3.715,2.995,2.683,2.683,0,0,0,.134,1.958,2.369,2.369,0,0,0,1.476,1.351,2.421,2.421,0,0,0,3.122-1.089,1.785,1.785,0,0,1-.093-1.346,1.182,1.182,0,0,1,.958-.794l1.925-.443Z" transform="translate(-142.653 -146.436)" fill="#fff"/></g></g></svg>