<?xml version="1.0" encoding="utf-8"?>
<!-- Generator: Adobe Illustrator 24.1.3, SVG Export Plug-In . SVG Version: 6.00 Build 0)  -->
<svg version="1.1" id="Layer_1" xmlns="http://www.w3.org/2000/svg" xmlns:xlink="http://www.w3.org/1999/xlink" x="0px" y="0px"
	 width="50px" height="50px" viewBox="0 0 50 50" style="enable-background:new 0 0 50 50;" xml:space="preserve">
<style type="text/css">
	.st0{fill:url(#SVGID_1_);}
	.st1{fill:#FFFFFF;}
</style>
<symbol  id="The_HUB" viewBox="-101.434 -101.434 202.869 202.869">
	<linearGradient id="SVGID_1_" gradientUnits="userSpaceOnUse" x1="42.8782" y1="-91.9526" x2="-42.8782" y2="91.9526">
		<stop  offset="0.3118" style="stop-color:#F92962"/>
		<stop  offset="0.9996" style="stop-color:#782E74"/>
	</linearGradient>
	<circle class="st0" cx="0" cy="0" r="101.434"/>
	<g>
		<path class="st1" d="M16.483,46.658c-0.405,1.682-1.018,3.191-1.834,4.528c-0.817,1.335-1.819,2.417-3.007,3.245
			c-1.189,0.826-2.579,1.356-4.167,1.592c-1.59,0.234-3.391,0.11-5.399-0.374c-0.936-0.225-1.866-0.524-2.79-0.894
			c-0.925-0.371-1.832-0.764-2.722-1.175l0.038,12.619l-10.463-2.505l0.083-60.569l10.446,2.517l-0.057,39.122
			c0.621,0.298,1.258,0.573,1.914,0.831c0.653,0.257,1.355,0.476,2.104,0.656c1.776,0.428,3.084,0.284,3.923-0.428
			c0.84-0.712,1.406-1.676,1.699-2.892c0.191-0.795,0.311-1.656,0.363-2.583c0.05-0.928,0.077-1.812,0.082-2.652L6.766,8.074
			l10.448,2.517l-0.03,30.077C17.188,42.697,16.956,44.695,16.483,46.658z"/>
		<path class="st1" d="M26.902,17.719c1.576-1.104,3.457-1.826,5.641-2.165c2.183-0.339,4.723-0.16,7.622,0.538
			c2.384,0.574,4.543,1.316,6.474,2.227c1.933,0.911,3.491,1.78,4.675,2.61l-2.747,8.018c-1.233-0.842-2.588-1.576-4.069-2.204
			c-1.48-0.628-2.969-1.123-4.463-1.483c-2.385-0.575-4.225-0.586-5.519-0.032c-1.297,0.552-2.345,1.771-3.143,3.656
			c3.365,0.811,6.412,1.816,9.139,3.018c2.726,1.2,4.993,2.625,6.797,4.271c1.804,1.647,3.071,3.522,3.8,5.626
			c0.729,2.105,0.779,4.465,0.148,7.084c-0.394,1.635-1.038,3.025-1.932,4.171c-0.894,1.143-1.973,2.033-3.24,2.668
			c-1.265,0.634-2.655,1.017-4.17,1.147c-1.515,0.129-3.09-0.003-4.726-0.398c-3.319-0.8-6.185-2.195-8.598-4.186
			c-2.414-1.991-4.317-4.303-5.71-6.939c-1.393-2.636-2.277-5.483-2.653-8.54c-0.376-3.058-0.204-6.083,0.517-9.075
			c0.507-2.103,1.266-4.022,2.278-5.757C24.032,20.241,25.326,18.823,26.902,17.719z M31.839,43.723
			c1.388,2.139,3.275,3.497,5.659,4.071c2.525,0.608,4.058-0.209,4.598-2.453c0.158-0.655,0.15-1.349-0.018-2.081
			c-0.17-0.735-0.679-1.499-1.525-2.296c-0.846-0.799-2.11-1.61-3.79-2.435c-1.68-0.826-3.958-1.634-6.834-2.425
			C29.813,39.044,30.451,41.584,31.839,43.723z"/>
		<path class="st1" d="M54.212-18.919c-0.507,2.104-1.238,4.005-2.191,5.704c-0.954,1.699-2.13,3.096-3.532,4.193
			c-1.402,1.096-3.016,1.844-4.844,2.245c-1.828,0.4-3.862,0.331-6.106-0.209c-1.076-0.259-2.053-0.62-2.931-1.078
			c-0.879-0.459-1.735-1.011-2.568-1.657L32.028,9.416L21.566,6.785l0.152-55.566c1.513-0.328,3.073-0.497,4.683-0.505
			c1.609-0.006,3.115,0.059,4.515,0.199c1.4,0.14,2.63,0.324,3.688,0.554c1.057,0.23,1.796,0.396,2.216,0.498
			c3.271,0.788,6.161,2.141,8.668,4.054c2.506,1.914,4.53,4.182,6.076,6.805c1.543,2.622,2.565,5.514,3.065,8.677
			C55.127-25.338,54.989-22.145,54.212-18.919z M44.375-27.669c-0.202-1.83-0.668-3.537-1.398-5.121
			c-0.732-1.586-1.726-2.952-2.983-4.095c-1.258-1.144-2.704-1.912-4.341-2.306c-0.515-0.124-0.936-0.225-1.262-0.304
			c-0.327-0.079-0.61-0.136-0.85-0.169c-0.239-0.034-0.469-0.051-0.692-0.055c-0.221-0.005-0.477-0.017-0.77-0.038L32.078-19.43
			c0.662,0.95,1.491,1.669,2.485,2.156c0.995,0.487,1.82,0.81,2.475,0.968c2.01,0.484,3.54,0.184,4.593-0.896
			c1.052-1.082,1.848-2.745,2.388-4.989C44.459-24.014,44.577-25.839,44.375-27.669z"/>
		<path class="st1" d="M6.799-45.285c-1.335-0.617-2.679-1.091-4.035-1.418c-1.402-0.338-2.507-0.319-3.314,0.054
			c-0.808,0.376-1.409,0.972-1.805,1.791c-0.394,0.821-0.649,1.822-0.761,3.007c-0.112,1.185-0.175,2.418-0.187,3.701L-3.371-6.705
			l-10.448-2.517l0.03-31.898c-0.026-5.841,1.372-10.105,4.193-12.788c2.823-2.683,6.993-3.361,12.508-2.032
			c1.87,0.451,3.521,0.936,4.954,1.453c1.433,0.519,2.714,1.051,3.845,1.595c1.129,0.544,2.139,1.084,3.023,1.617
			c0.885,0.536,1.696,1.015,2.435,1.441l0.003,48.078L6.725-4.273L6.799-45.285z"/>
		<path class="st1" d="M-18.058-33.185c-0.405,1.682-1.018,3.191-1.834,4.528c-0.817,1.335-1.819,2.417-3.007,3.245
			c-1.189,0.826-2.579,1.356-4.167,1.592c-1.59,0.234-3.391,0.11-5.399-0.374c-0.936-0.225-1.866-0.524-2.79-0.894
			c-0.925-0.371-1.832-0.764-2.722-1.175l0.038,18.63l-10.463-2.655l0.083-57.414l10.446,2.517l-0.057,30.106
			c0.621,0.298,1.258,0.573,1.914,0.831c0.653,0.257,1.355,0.476,2.104,0.656c1.776,0.428,3.084,0.284,3.923-0.428
			c0.84-0.712,1.406-1.676,1.699-2.892c0.191-0.795,0.311-1.656,0.363-2.583c0.05-0.928,0.077-1.812,0.082-2.652l0.069-20.607
			l10.448,2.517l-0.03,21.061C-17.352-37.146-17.585-35.148-18.058-33.185z"/>
		<path class="st1" d="M-43.435,14.839c0.013-2.519,0.233-4.866,0.657-7.038c0.423-2.172,1.211-3.999,2.358-5.478
			c1.147-1.479,2.725-2.485,4.733-3.014c2.007-0.529,4.624-0.407,7.849,0.37c2.244,0.541,4.137,1.196,5.685,1.963
			c1.544,0.767,2.957,1.577,4.235,2.43l0.232,9.533c-0.985-0.634-4.906-2.906-5.908-3.371c-1.001-0.463-2.062-0.831-3.183-1.1
			c-1.31-0.315-2.384-0.376-3.221-0.183c-0.838,0.194-1.491,0.594-1.958,1.197c-0.467,0.605-0.778,1.382-0.934,2.335
			c-0.153,0.952-0.222,1.998-0.2,3.141l-0.023,23.578l4.921,1.133v0.036l10.015,2.354l0.042,9.062l-15.006-3.528l0.046,10.737
			L-43.557,56.6l0.026-10.742l-9.66-2.223c-0.026-0.006-0.051-0.012-0.077-0.018l-0.059-0.014v-0.004
			c-5.101-1.219-8.315-3.807-9.587-7.728c-0.53-1.635-0.412-3.306,0.346-5.051c0.796-1.758,2.053-2.916,3.808-3.485
			c3.511-1.14,5.839-0.352,8.056,2.81c-0.54,1.189-0.616,2.316-0.24,3.473c0.389,1.16,1.256,1.786,2.471,2.05l4.968,1.143
			L-43.435,14.839z"/>
	</g>
</symbol>
<use xlink:href="#The_HUB"  width="202.869" height="202.869" x="-101.434" y="-101.434" transform="matrix(0.2465 0 0 -0.2465 25.0484 25)" style="overflow:visible;"/>
</svg>
