<?xml version="1.0" encoding="utf-8"?>
<!-- Generator: Adobe Illustrator 24.1.3, SVG Export Plug-In . SVG Version: 6.00 Build 0)  -->
<svg version="1.1" id="Layer_1" xmlns="http://www.w3.org/2000/svg" xmlns:xlink="http://www.w3.org/1999/xlink" x="0px" y="0px"
	 width="50px" height="50px" viewBox="0 0 50 50" style="enable-background:new 0 0 50 50;" xml:space="preserve">
<g>
	<g>
		<path d="M35.309,29.24c-0.259-0.266-0.637-0.34-1.132-0.221c-0.161,0.039-0.365,0.118-0.61,0.238
			c-0.245,0.12-0.45,0.297-0.613,0.531l0,5.01c0.072-0.005,0.135-0.008,0.19-0.009c0.055-0.001,0.111-0.005,0.17-0.014
			c0.059-0.008,0.129-0.022,0.209-0.042s0.184-0.044,0.311-0.075c0.403-0.097,0.76-0.286,1.07-0.568
			c0.31-0.282,0.555-0.618,0.735-1.009c0.18-0.39,0.295-0.811,0.345-1.262c0.05-0.451,0.021-0.901-0.088-1.35
			C35.765,29.916,35.568,29.506,35.309,29.24z"/>
		<path d="M34.109,15.504c0.414-0.203,0.726-0.403,0.934-0.6c0.209-0.196,0.334-0.385,0.376-0.566
			c0.041-0.18,0.043-0.352,0.004-0.513c-0.133-0.553-0.511-0.754-1.133-0.604c-0.587,0.142-1.053,0.476-1.395,1.003
			c-0.342,0.527-0.499,1.153-0.471,1.878C33.134,15.907,33.695,15.707,34.109,15.504z"/>
		<path d="M25.048,0c-13.807,0-25,11.193-25,25s11.193,25,25,25c13.807,0,25-11.193,25-25S38.856,0,25.048,0z M12.492,16.714
			c-0.093,0.285-0.074,0.563,0.059,0.856c-0.546,0.779-1.12,0.974-1.986,0.693c-0.433-0.14-0.742-0.426-0.939-0.859
			c-0.187-0.43-0.216-0.842-0.085-1.245c0.314-0.966,1.106-1.604,2.363-1.905v-0.001l0.015-0.003
			c0.006-0.001,0.013-0.003,0.019-0.004l2.381-0.548l-0.006-2.648l2.579-0.591l-0.011,2.646l3.699-0.87l-0.01,2.233L18.1,15.05
			v0.009l-1.213,0.279l0.006,5.811c-0.005,0.282,0.011,0.54,0.049,0.774c0.039,0.235,0.115,0.427,0.23,0.576
			c0.115,0.149,0.276,0.247,0.483,0.295c0.206,0.048,0.471,0.033,0.794-0.045c0.276-0.067,0.538-0.157,0.785-0.271
			c0.247-0.115,1.213-0.675,1.456-0.831l-0.057,2.35c-0.315,0.21-0.663,0.41-1.044,0.599c-0.382,0.189-0.848,0.351-1.401,0.484
			c-0.795,0.192-1.44,0.222-1.934,0.091c-0.495-0.13-0.884-0.378-1.166-0.743c-0.283-0.364-0.477-0.815-0.581-1.35
			c-0.104-0.535-0.159-1.114-0.162-1.735l-0.018-5.415l-1.224,0.282C12.802,16.274,12.588,16.428,12.492,16.714z M18.203,40.466
			l-0.017-5.079c-0.001-0.207-0.008-0.425-0.02-0.654c-0.013-0.228-0.042-0.441-0.089-0.637c-0.072-0.3-0.212-0.537-0.419-0.713
			c-0.207-0.176-0.529-0.211-0.967-0.106c-0.185,0.044-0.358,0.098-0.519,0.162c-0.162,0.064-0.319,0.131-0.472,0.205l0.014,7.42
			l-2.575,0.62l-0.021-14.151l2.579-0.654l-0.009,4.592c0.219-0.101,0.443-0.198,0.671-0.29c0.228-0.091,0.457-0.165,0.688-0.22
			c0.495-0.119,0.939-0.15,1.331-0.092c0.392,0.058,0.734,0.189,1.027,0.392c0.293,0.204,0.54,0.471,0.741,0.8
			c0.201,0.329,0.352,0.702,0.452,1.116c0.117,0.484,0.174,0.976,0.173,1.476l0.007,5.191L18.203,40.466z M29.28,37.282
			c-0.182,0.105-0.382,0.223-0.6,0.355c-0.218,0.131-0.467,0.265-0.745,0.399c-0.279,0.134-0.595,0.265-0.948,0.393
			c-0.353,0.127-0.76,0.247-1.221,0.358c-1.359,0.327-2.387,0.16-3.083-0.501c-0.695-0.661-1.04-1.712-1.034-3.152l-0.007-7.862
			l2.575-0.62l0.017,7.75c0.003,0.316,0.018,0.62,0.046,0.912c0.028,0.292,0.09,0.539,0.188,0.741
			c0.098,0.202,0.246,0.349,0.445,0.441c0.199,0.092,0.471,0.097,0.817,0.013c0.334-0.081,0.666-0.197,0.995-0.349l-0.018-10.108
			l2.575-0.62L29.28,37.282z M26.716,23.01l-0.017-7.301c-0.001-0.207-0.008-0.425-0.02-0.654c-0.013-0.228-0.042-0.441-0.089-0.637
			c-0.072-0.3-0.212-0.537-0.419-0.713c-0.207-0.176-0.529-0.211-0.967-0.106c-0.185,0.044-0.358,0.098-0.519,0.162
			c-0.162,0.064-0.319,0.131-0.472,0.205l0.014,9.642l-2.575,0.62L21.632,9.302l2.579-0.617l-0.009,3.11
			c0.219-0.101,0.443-0.198,0.671-0.29c0.228-0.091,0.457-0.165,0.688-0.22c0.495-0.119,0.939-0.15,1.331-0.092
			c0.392,0.058,0.734,0.189,1.027,0.392c0.293,0.204,0.54,0.471,0.741,0.8c0.201,0.33,0.352,0.702,0.452,1.116
			c0.117,0.484,0.174,0.976,0.173,1.476l0.007,7.413L26.716,23.01z M30.033,15.928c0.093-0.754,0.31-1.455,0.654-2.105
			c0.343-0.65,0.813-1.22,1.407-1.71c0.595-0.491,1.301-0.835,2.119-1.032c0.403-0.097,0.792-0.13,1.165-0.098
			c0.373,0.032,0.716,0.127,1.028,0.283c0.312,0.157,0.578,0.376,0.799,0.658c0.22,0.282,0.379,0.625,0.476,1.028
			c0.156,0.645,0.143,1.227-0.037,1.746c-0.18,0.519-0.492,0.981-0.937,1.387c-0.445,0.406-1.003,0.757-1.675,1.053
			c-0.672,0.296-1.423,0.544-2.252,0.744c0.197,0.464,0.455,0.765,0.775,0.901c0.319,0.137,0.773,0.134,1.36-0.008
			c0.368-0.089,0.735-0.211,1.1-0.365c0.365-0.155,0.699-0.336,1.003-0.543l0.677,1.976c-0.292,0.205-0.676,0.419-1.152,0.643
			c-0.476,0.224-1.008,0.407-1.596,0.549c-0.714,0.172-1.341,0.216-1.879,0.133c-0.538-0.083-1.002-0.262-1.39-0.534
			c-0.388-0.272-0.707-0.622-0.957-1.049c-0.249-0.428-0.436-0.901-0.561-1.419C29.983,17.427,29.941,16.682,30.033,15.928z
			 M38.513,32.024c-0.123,0.78-0.375,1.492-0.755,2.139c-0.381,0.646-0.88,1.206-1.498,1.677c-0.618,0.471-1.33,0.805-2.136,0.999
			c-0.104,0.025-0.286,0.066-0.546,0.123c-0.261,0.057-0.564,0.102-0.909,0.136c-0.345,0.034-0.716,0.051-1.113,0.049
			c-0.397-0.002-0.781-0.044-1.154-0.124l-0.037-13.695l2.578-0.648l0.003,4.717c0.205-0.159,0.416-0.295,0.633-0.408
			c0.216-0.113,0.457-0.202,0.722-0.266c0.553-0.133,1.054-0.15,1.505-0.052c0.451,0.099,0.848,0.283,1.194,0.553
			c0.346,0.27,0.635,0.615,0.871,1.033c0.235,0.419,0.415,0.887,0.54,1.406C38.601,30.458,38.635,31.245,38.513,32.024z"/>
	</g>
</g>
</svg>
