<svg xmlns="http://www.w3.org/2000/svg" width="50" height="50"><linearGradient id="a" gradientUnits="userSpaceOnUse" x1="35.616" y1="47.663" x2="14.48" y2="2.337"><stop offset=".312" stop-color="#f92962"/><stop offset="1" stop-color="#782e74"/></linearGradient><circle cx="25.048" cy="25" r="25" fill="url(#a)"/><path d="M44.32 9.075l-5.584 1.291-11.855 2.728a3.254 3.254 0 00-.095.022l-.073.017v.005c-6.26 1.496-10.203 4.672-11.765 9.483-.651 2.007-.505 4.057.424 6.199.977 2.157 2.519 3.578 4.674 4.277 4.309 1.399 7.166.432 9.887-3.448-.663-1.459-.755-2.842-.294-4.262.477-1.423 1.541-2.191 3.032-2.516l6.096-1.403 10.562-2.431a24.892 24.892 0 00-5.009-9.962z" fill="#fff"/></svg>