<svg xmlns="http://www.w3.org/2000/svg" width="73.003" height="73.003"><defs><linearGradient id="a" x1=".711" y1=".953" x2=".289" y2=".047" gradientUnits="objectBoundingBox"><stop offset=".312" stop-color="#f92962"/><stop offset="1" stop-color="#782e74"/></linearGradient></defs><g transform="translate(-241 -174)"><circle cx="32.872" cy="32.872" r="32.872" transform="translate(245 178)" fill="url(#a)"/><path d="M277.502 174a36.5 36.5 0 1036.5 36.5 36.5 36.5 0 00-36.5-36.5zm12.467 59.575l-.042-12.644q0-.773-.05-1.627a8.828 8.828 0 00-.223-1.585 3.241 3.241 0 00-1.042-1.775 2.67 2.67 0 00-2.408-.263 9.938 9.938 0 00-1.29.4c-.4.158-.794.328-1.175.51l.035 18.474-6.409 1.543-.025-16.873a17.522 17.522 0 01-3.161 1.05 10.138 10.138 0 01-4.815.227 5.239 5.239 0 01-2.9-1.85 7.849 7.849 0 01-1.447-3.361 23.2 23.2 0 01-.4-4.319l-.043-13.481-3.049.7a1.871 1.871 0 00-1.516 1.258 2.827 2.827 0 00.147 2.132c-1.36 1.94-2.789 2.424-4.944 1.724a3.752 3.752 0 01-2.336-2.139 4.245 4.245 0 01-.212-3.1c.781-2.406 2.752-3.994 5.882-4.742l.037-.008.047-.011 5.927-1.363-.015-6.592 6.42-1.47-.029 6.588 9.208-2.164-.026 5.56-6.146 1.445v.023l-3.019.7.014 14.468a10.8 10.8 0 00.122 1.927 3.132 3.132 0 00.573 1.432 2.042 2.042 0 001.2.735 4.43 4.43 0 001.976-.112 10.5 10.5 0 001.954-.676c.121-.057.315-.157.548-.284l-.018-12.646 6.42-1.629-.024 11.431c.546-.252 1.1-.494 1.67-.721a12.534 12.534 0 011.712-.549 8.747 8.747 0 013.313-.229 5.947 5.947 0 012.557.977 6.555 6.555 0 011.845 1.991 9.626 9.626 0 011.125 2.779 15.484 15.484 0 01.43 3.675l.018 12.923z" fill="#fff"/></g></svg>