<svg xmlns="http://www.w3.org/2000/svg" xmlns:xlink="http://www.w3.org/1999/xlink" width="50" height="50"><symbol id="b" viewBox="-101.434 -101.434 202.869 202.869"><linearGradient id="a" gradientUnits="userSpaceOnUse" x1="42.878" y1="-91.953" x2="-42.878" y2="91.953"><stop offset=".312" stop-color="#f92962"/><stop offset="1" stop-color="#782e74"/></linearGradient><circle r="101.434" fill="url(#a)"/><path d="M16.483 46.658c-.405 1.682-1.018 3.191-1.834 4.528-.817 1.335-1.819 2.417-3.007 3.245-1.189.826-2.579 1.356-4.167 1.592-1.59.234-3.391.11-5.399-.374a20.21 20.21 0 01-2.79-.894 57.918 57.918 0 01-2.722-1.175l.038 12.619-10.463-2.505.083-60.569 10.446 2.517-.057 39.122c.621.298 1.258.573 1.914.831a15.87 15.87 0 002.104.656c1.776.428 3.084.284 3.923-.428.84-.712 1.406-1.676 1.699-2.892a14.55 14.55 0 00.363-2.583c.05-.928.077-1.812.082-2.652l.07-29.622 10.448 2.517-.03 30.077a25.273 25.273 0 01-.701 5.99zm10.419-28.939c1.576-1.104 3.457-1.826 5.641-2.165 2.183-.339 4.723-.16 7.622.538 2.384.574 4.543 1.316 6.474 2.227 1.933.911 3.491 1.78 4.675 2.61l-2.747 8.018a23.355 23.355 0 00-4.069-2.204 28.539 28.539 0 00-4.463-1.483c-2.385-.575-4.225-.586-5.519-.032-1.297.552-2.345 1.771-3.143 3.656 3.365.811 6.412 1.816 9.139 3.018 2.726 1.2 4.993 2.625 6.797 4.271 1.804 1.647 3.071 3.522 3.8 5.626.729 2.105.779 4.465.148 7.084-.394 1.635-1.038 3.025-1.932 4.171a9.45 9.45 0 01-3.24 2.668c-1.265.634-2.655 1.017-4.17 1.147-1.515.129-3.09-.003-4.726-.398-3.319-.8-6.185-2.195-8.598-4.186-2.414-1.991-4.317-4.303-5.71-6.939-1.393-2.636-2.277-5.483-2.653-8.54a25.267 25.267 0 01.517-9.075c.507-2.103 1.266-4.022 2.278-5.757 1.009-1.733 2.303-3.151 3.879-4.255zm4.937 26.004c1.388 2.139 3.275 3.497 5.659 4.071 2.525.608 4.058-.209 4.598-2.453.158-.655.15-1.349-.018-2.081-.17-.735-.679-1.499-1.525-2.296-.846-.799-2.11-1.61-3.79-2.435-1.68-.826-3.958-1.634-6.834-2.425-.116 2.94.522 5.48 1.91 7.619zm22.373-62.642c-.507 2.104-1.238 4.005-2.191 5.704-.954 1.699-2.13 3.096-3.532 4.193-1.402 1.096-3.016 1.844-4.844 2.245-1.828.4-3.862.331-6.106-.209a12.78 12.78 0 01-2.931-1.078 17.13 17.13 0 01-2.568-1.657l-.012 19.137-10.462-2.631.152-55.566a22.568 22.568 0 014.683-.505 43.887 43.887 0 014.515.199c1.4.14 2.63.324 3.688.554 1.057.23 1.796.396 2.216.498 3.271.788 6.161 2.141 8.668 4.054 2.506 1.914 4.53 4.182 6.076 6.805 1.543 2.622 2.565 5.514 3.065 8.677.498 3.161.36 6.354-.417 9.58zm-9.837-8.75a16.465 16.465 0 00-1.398-5.121 12.615 12.615 0 00-2.983-4.095 9.744 9.744 0 00-4.341-2.306l-1.262-.304a8.84 8.84 0 00-.85-.169 5.612 5.612 0 00-.692-.055 15.859 15.859 0 01-.77-.038l-.001 20.327c.662.95 1.491 1.669 2.485 2.156.995.487 1.82.81 2.475.968 2.01.484 3.54.184 4.593-.896 1.052-1.082 1.848-2.745 2.388-4.989.44-1.823.558-3.648.356-5.478zM6.799-45.285a21.781 21.781 0 00-4.035-1.418c-1.402-.338-2.507-.319-3.314.054a3.678 3.678 0 00-1.805 1.791c-.394.821-.649 1.822-.761 3.007a43.675 43.675 0 00-.187 3.701l-.068 31.445-10.448-2.517.03-31.898c-.026-5.841 1.372-10.105 4.193-12.788 2.823-2.683 6.993-3.361 12.508-2.032 1.87.451 3.521.936 4.954 1.453a41.54 41.54 0 013.845 1.595 36.943 36.943 0 013.023 1.617c.885.536 1.696 1.015 2.435 1.441l.003 48.078L6.725-4.273l.074-41.012zm-24.857 12.1c-.405 1.682-1.018 3.191-1.834 4.528-.817 1.335-1.819 2.417-3.007 3.245-1.189.826-2.579 1.356-4.167 1.592-1.59.234-3.391.11-5.399-.374a20.21 20.21 0 01-2.79-.894 57.918 57.918 0 01-2.722-1.175l.038 18.63-10.463-2.655.083-57.414 10.446 2.517-.057 30.106c.621.298 1.258.573 1.914.831a15.87 15.87 0 002.104.656c1.776.428 3.084.284 3.923-.428.84-.712 1.406-1.676 1.699-2.892a14.55 14.55 0 00.363-2.583c.05-.928.077-1.812.082-2.652l.069-20.607 10.448 2.517-.03 21.061a25.171 25.171 0 01-.7 5.991zm-25.377 48.024c.013-2.519.233-4.866.657-7.038.423-2.172 1.211-3.999 2.358-5.478 1.147-1.479 2.725-2.485 4.733-3.014 2.007-.529 4.624-.407 7.849.37 2.244.541 4.137 1.196 5.685 1.963a38.401 38.401 0 014.235 2.43l.232 9.533c-.985-.634-4.906-2.906-5.908-3.371a17.026 17.026 0 00-3.183-1.1c-1.31-.315-2.384-.376-3.221-.183-.838.194-1.491.594-1.958 1.197-.467.605-.778 1.382-.934 2.335a17.68 17.68 0 00-.2 3.141l-.023 23.578 4.921 1.133v.036l10.015 2.354.042 9.062-15.006-3.528.046 10.737-10.462-2.396.026-10.742-9.66-2.223-.077-.018-.059-.014v-.004c-5.101-1.219-8.315-3.807-9.587-7.728-.53-1.635-.412-3.306.346-5.051.796-1.758 2.053-2.916 3.808-3.485 3.511-1.14 5.839-.352 8.056 2.81-.54 1.189-.616 2.316-.24 3.473.389 1.16 1.256 1.786 2.471 2.05l4.968 1.143.07-21.972z" fill="#fff"/></symbol><use xlink:href="#b" width="202.869" height="202.869" x="-101.434" y="-101.434" transform="matrix(.2465 0 0 -.2465 25.048 25)" overflow="visible"/></svg>