<svg xmlns="http://www.w3.org/2000/svg" width="50" height="50"><path d="M35.309 29.24c-.259-.266-.637-.34-1.132-.221a3.141 3.141 0 00-.61.238c-.245.12-.45.297-.613.531v5.01c.072-.005.135-.008.19-.009a1.27 1.27 0 00.17-.014c.059-.008.129-.022.209-.042l.311-.075c.403-.097.76-.286 1.07-.568a3.1 3.1 0 00.735-1.009c.18-.39.295-.811.345-1.262.05-.451.021-.901-.088-1.35-.131-.553-.328-.963-.587-1.229zm-1.2-13.736c.414-.203.726-.403.934-.6.209-.196.334-.385.376-.566.041-.18.043-.352.004-.513-.133-.553-.511-.754-1.133-.604a2.245 2.245 0 00-1.395 1.003c-.342.527-.499 1.153-.471 1.878.71-.195 1.271-.395 1.685-.598z"/><path d="M25.048 0c-13.807 0-25 11.193-25 25s11.193 25 25 25 25-11.193 25-25-11.192-25-25-25zM12.492 16.714c-.093.285-.074.563.059.856-.546.779-1.12.974-1.986.693-.433-.14-.742-.426-.939-.859-.187-.43-.216-.842-.085-1.245.314-.966 1.106-1.604 2.363-1.905v-.001l.015-.003.019-.004 2.381-.548-.006-2.648 2.579-.591-.011 2.646 3.699-.87-.01 2.233-2.47.582v.009l-1.213.279.006 5.811c-.005.282.011.54.049.774.039.235.115.427.23.576a.82.82 0 00.483.295c.206.048.471.033.794-.045.276-.067.538-.157.785-.271.247-.115 1.213-.675 1.456-.831l-.057 2.35a9.46 9.46 0 01-1.044.599 6.718 6.718 0 01-1.401.484c-.795.192-1.44.222-1.934.091-.495-.13-.884-.378-1.166-.743-.283-.364-.477-.815-.581-1.35a9.334 9.334 0 01-.162-1.735l-.018-5.415-1.224.282c-.301.064-.515.218-.611.504zm5.711 23.752l-.017-5.079a13.818 13.818 0 00-.02-.654 3.623 3.623 0 00-.089-.637 1.304 1.304 0 00-.419-.713c-.207-.176-.529-.211-.967-.106a3.758 3.758 0 00-.519.162 6.921 6.921 0 00-.472.205l.014 7.42-2.575.62-.021-14.151 2.579-.654-.009 4.592c.219-.101.443-.198.671-.29.228-.091.457-.165.688-.22.495-.119.939-.15 1.331-.092.392.058.734.189 1.027.392.293.204.54.471.741.8.201.329.352.702.452 1.116.117.484.174.976.173 1.476l.007 5.191-2.575.622zm11.077-3.184a32.95 32.95 0 00-.6.355 9.253 9.253 0 01-.745.399c-.279.134-.595.265-.948.393-.353.127-.76.247-1.221.358-1.359.327-2.387.16-3.083-.501-.695-.661-1.04-1.712-1.034-3.152l-.007-7.862 2.575-.62.017 7.75c.003.316.018.62.046.912.028.292.09.539.188.741a.905.905 0 00.445.441c.199.092.471.097.817.013a5.41 5.41 0 00.995-.349l-.018-10.108 2.575-.62-.002 11.85zM26.716 23.01l-.017-7.301a13.818 13.818 0 00-.02-.654 3.623 3.623 0 00-.089-.637 1.304 1.304 0 00-.419-.713c-.207-.176-.529-.211-.967-.106a3.758 3.758 0 00-.519.162 6.921 6.921 0 00-.472.205l.014 9.642-2.575.62-.02-14.926 2.579-.617-.009 3.11c.219-.101.443-.198.671-.29.228-.091.457-.165.688-.22.495-.119.939-.15 1.331-.092.392.058.734.189 1.027.392.293.204.54.471.741.8.201.33.352.702.452 1.116.117.484.174.976.173 1.476l.007 7.413-2.576.62zm3.317-7.082c.093-.754.31-1.455.654-2.105.343-.65.813-1.22 1.407-1.71.595-.491 1.301-.835 2.119-1.032.403-.097.792-.13 1.165-.098s.716.127 1.028.283c.312.157.578.376.799.658.22.282.379.625.476 1.028.156.645.143 1.227-.037 1.746-.18.519-.492.981-.937 1.387-.445.406-1.003.757-1.675 1.053-.672.296-1.423.544-2.252.744.197.464.455.765.775.901.319.137.773.134 1.36-.008a7.159 7.159 0 001.1-.365 5.811 5.811 0 001.003-.543l.677 1.976a7.878 7.878 0 01-1.152.643 8.342 8.342 0 01-1.596.549c-.714.172-1.341.216-1.879.133a3.25 3.25 0 01-1.39-.534 3.294 3.294 0 01-.957-1.049 5.256 5.256 0 01-.561-1.419 6.267 6.267 0 01-.127-2.238zm8.48 16.096a6.037 6.037 0 01-.755 2.139 5.8 5.8 0 01-1.498 1.677 5.668 5.668 0 01-2.136.999c-.104.025-.286.066-.546.123a7.978 7.978 0 01-.909.136 10.81 10.81 0 01-1.113.049 5.62 5.62 0 01-1.154-.124l-.037-13.695 2.578-.648.003 4.717c.205-.159.416-.295.633-.408.216-.113.457-.202.722-.266.553-.133 1.054-.15 1.505-.052.451.099.848.283 1.194.553.346.27.635.615.871 1.033.235.419.415.887.54 1.406.19.795.224 1.582.102 2.361z"/></svg>