<svg xmlns="http://www.w3.org/2000/svg" width="78.621" height="78.621"><g transform="translate(-89.188 -89.82)"><circle cx="39.311" cy="39.311" r="39.311" transform="translate(89.188 89.82)" fill="#333" opacity=".1"/><path d="M134.886 111.048a6.08 6.08 0 00-.711-1.755 4.136 4.136 0 00-1.165-1.258 3.751 3.751 0 00-1.615-.617 5.534 5.534 0 00-2.093.145 7.828 7.828 0 00-1.081.347q-.538.216-1.055.455l.015-4.891-4.055.971.032 23.473 4.048-.975-.022-15.162c.241-.115.488-.222.742-.322a6.194 6.194 0 01.816-.254 1.685 1.685 0 011.52.166 2.05 2.05 0 01.658 1.121 5.6 5.6 0 01.141 1q.029.54.032 1.028l.027 11.48 4.049-.975-.012-11.657a9.79 9.79 0 00-.271-2.32zm4.038 11.215a5.123 5.123 0 002.186.839 7.691 7.691 0 002.954-.209 13.045 13.045 0 002.509-.863 12.511 12.511 0 001.812-1.012l-1.065-3.108a9.047 9.047 0 01-1.577.854 11.029 11.029 0 01-1.73.575 3.512 3.512 0 01-2.139.012 2.474 2.474 0 01-1.218-1.415 20.962 20.962 0 003.542-1.17 9.624 9.624 0 002.634-1.656 5.274 5.274 0 001.473-2.18 4.82 4.82 0 00.057-2.745 4.186 4.186 0 00-.749-1.617 3.663 3.663 0 00-1.256-1.034 4.418 4.418 0 00-1.616-.445 5.724 5.724 0 00-1.832.154 8.149 8.149 0 00-3.332 1.622 8.793 8.793 0 00-2.213 2.689 9.5 9.5 0 00-1.028 3.31 9.794 9.794 0 00.2 3.517 8.227 8.227 0 00.883 2.231 5.148 5.148 0 001.505 1.651zm1.912-10.077a3.524 3.524 0 012.193-1.578q1.468-.354 1.782.95a1.743 1.743 0 01-.007.806 1.869 1.869 0 01-.591.89 6.058 6.058 0 01-1.469.943 15.519 15.519 0 01-2.649.94 4.937 4.937 0 01.741-2.951zm8.672 24.276a8.629 8.629 0 00-.849-2.211 5.369 5.369 0 00-1.369-1.625 4.608 4.608 0 00-1.877-.87 5.255 5.255 0 00-2.366.081 4.974 4.974 0 00-1.136.417 6.634 6.634 0 00-1 .642v-7.416l-4.054 1.02.059 21.535a8.748 8.748 0 001.815.2 17.042 17.042 0 001.75-.077 12.817 12.817 0 001.429-.215q.614-.134.859-.193a8.911 8.911 0 003.359-1.571 9.131 9.131 0 002.356-2.641 9.564 9.564 0 001.026-7.076zm-3.812 3.391a6.387 6.387 0 01-.542 1.985 4.893 4.893 0 01-1.156 1.587 3.778 3.778 0 01-1.682.894l-.489.118a3.292 3.292 0 01-.329.065 2.177 2.177 0 01-.268.021c-.086 0-.185.007-.3.015v-7.878a2.5 2.5 0 01.963-.836 4.922 4.922 0 01.959-.375 1.755 1.755 0 011.78.347 4.127 4.127 0 01.926 1.934 6.124 6.124 0 01.138 2.123zm-14.563 6.828a8.416 8.416 0 01-1.564.549 1.989 1.989 0 01-1.285-.021 1.427 1.427 0 01-.7-.694 3.431 3.431 0 01-.295-1.166q-.065-.689-.073-1.434l-.027-12.186-4.049.976.012 12.362q-.015 3.4 1.625 4.956t4.848.788a18.305 18.305 0 001.92-.563 16.051 16.051 0 001.49-.618q.657-.316 1.172-.627t.943-.558v-18.634l-4.049.975zm-9.633-4.692a6.076 6.076 0 00-.711-1.755 4.14 4.14 0 00-1.165-1.258 3.751 3.751 0 00-1.615-.617 5.534 5.534 0 00-2.093.145 7.826 7.826 0 00-1.081.347q-.538.216-1.055.455l.015-7.22-4.055 1.029.032 22.251 4.048-.976-.022-11.667c.241-.115.488-.222.742-.322a6.19 6.19 0 01.816-.254 1.685 1.685 0 011.52.166 2.05 2.05 0 01.658 1.121 5.575 5.575 0 01.14 1q.03.54.032 1.028l.027 7.986 4.049-.976-.012-8.162a9.776 9.776 0 00-.27-2.321zm-9.835-18.61a14.648 14.648 0 00.255 2.727 4.949 4.949 0 00.914 2.123 3.31 3.31 0 001.834 1.168 6.394 6.394 0 003.042-.143 10.572 10.572 0 002.2-.761 14.894 14.894 0 001.641-.942l.09-3.695c-.381.246-1.9 1.126-2.29 1.306a6.624 6.624 0 01-1.234.427 2.793 2.793 0 01-1.248.071 1.293 1.293 0 01-.759-.464 1.98 1.98 0 01-.362-.905 6.824 6.824 0 01-.077-1.217l-.009-9.138 1.907-.439v-.014l3.881-.912.016-3.512-5.816 1.367.018-4.161-4.055.929.01 4.163-3.744.862-.03.007-.023.005a4.651 4.651 0 00-3.715 2.995 2.683 2.683 0 00.134 1.958 2.369 2.369 0 001.476 1.351 2.421 2.421 0 003.122-1.089 1.785 1.785 0 01-.093-1.346 1.182 1.182 0 01.958-.794l1.925-.443z" fill="#fff"/></g></svg>