<?xml version="1.0" standalone="no"?>
<!DOCTYPE svg PUBLIC "-//W3C//DTD SVG 20010904//EN"
 "http://www.w3.org/TR/2001/REC-SVG-20010904/DTD/svg10.dtd">
<svg version="1.0" xmlns="http://www.w3.org/2000/svg"
 width="700.000000pt" height="700.000000pt" viewBox="0 0 700.000000 700.000000"
 preserveAspectRatio="xMidYMid meet">
<metadata>
Created by potrace 1.11, written by Peter Selinger 2001-2013
</metadata>
<g transform="translate(0.000000,700.000000) scale(0.100000,-0.100000)"
fill="#000000" stroke="none">
<path d="M3299 6996 c-2 -2 -46 -6 -96 -10 -51 -4 -98 -8 -105 -11 -7 -2 -40
-6 -73 -10 -218 -21 -544 -107 -820 -215 -133 -53 -416 -195 -542 -274 -346
-215 -685 -521 -932 -845 -266 -348 -479 -767 -586 -1156 -38 -136 -47 -172
-51 -190 -41 -207 -41 -205 -64 -385 -21 -164 -29 -499 -16 -630 3 -25 7 -80
11 -122 3 -42 8 -87 10 -98 2 -12 9 -54 14 -93 6 -40 13 -83 16 -97 3 -14 7
-36 10 -50 10 -53 14 -72 19 -88 3 -9 7 -28 10 -42 8 -49 67 -247 108 -360 98
-276 245 -564 406 -795 30 -44 59 -81 64 -83 4 -2 8 -8 8 -13 0 -9 71 -102
135 -178 162 -192 392 -409 590 -557 206 -153 471 -308 685 -399 36 -15 83
-35 105 -45 99 -43 305 -108 460 -146 33 -8 76 -19 95 -24 19 -5 51 -12 70
-15 19 -3 46 -7 60 -10 90 -17 224 -35 320 -43 174 -15 567 -7 718 14 17 2 49
6 70 9 186 26 393 74 592 137 90 29 320 117 358 137 9 6 69 35 132 67 188 93
446 256 591 374 240 196 414 370 580 580 72 91 219 299 233 330 3 8 20 35 36
60 34 53 215 414 225 450 4 14 14 41 22 60 25 59 30 72 62 166 35 106 95 333
111 419 5 33 12 71 15 85 3 14 8 45 11 70 3 25 8 54 10 65 23 120 27 730 6
890 -16 121 -22 156 -26 164 -2 3 -7 26 -10 51 -3 25 -8 54 -10 65 -29 137
-41 183 -66 269 -172 591 -486 1110 -931 1541 -512 494 -1155 821 -1844 935
-33 5 -71 12 -84 15 -13 2 -56 7 -95 11 -39 3 -82 8 -96 11 -28 5 -516 14
-521 9z"/>
</g>
</svg>
