<svg version="1.0" xmlns="http://www.w3.org/2000/svg" width="933.333" height="933.333" viewBox="0 0 700 700"><path d="M329.9.4c-.2.2-4.6.6-9.6 1-5.1.4-9.8.8-10.5 1.1-.7.2-4 .6-7.3 1-21.8 2.1-54.4 10.7-82 21.5-13.3 5.3-41.6 19.5-54.2 27.4-34.6 21.5-68.5 52.1-93.2 84.5-26.6 34.8-47.9 76.7-58.6 115.6-3.8 13.6-4.7 17.2-5.1 19C5.3 292.2 5.3 292 3 310 .9 326.4.1 359.9 1.4 373c.3 2.5.7 8 1.1 12.2.3 4.2.8 8.7 1 9.8.2 1.2.9 5.4 1.4 9.3.6 4 1.3 8.3 1.6 9.7.3 1.4.7 3.6 1 5 1 5.3 1.4 7.2 1.9 8.8.3.9.7 2.8 1 4.2.8 4.9 6.7 24.7 10.8 36 9.8 27.6 24.5 56.4 40.6 79.5 3 4.4 5.9 8.1 6.4 8.3.4.2.8.8.8 1.3 0 .9 7.1 10.2 13.5 17.8 16.2 19.2 39.2 40.9 59 55.7 20.6 15.3 47.1 30.8 68.5 39.9 3.6 1.5 8.3 3.5 10.5 4.5 9.9 4.3 30.5 10.8 46 14.6 3.3.8 7.6 1.9 9.5 2.4 1.9.5 5.1 1.2 7 1.5 1.9.3 4.6.7 6 1 9 1.7 22.4 3.5 32 4.3 17.4 1.5 56.7.7 71.8-1.4 1.7-.2 4.9-.6 7-.9 18.6-2.6 39.3-7.4 59.2-13.7 9-2.9 32-11.7 35.8-13.7.9-.6 6.9-3.5 13.2-6.7 18.8-9.3 44.6-25.6 59.1-37.4 24-19.6 41.4-37 58-58 7.2-9.1 21.9-29.9 23.3-33 .3-.8 2-3.5 3.6-6 3.4-5.3 21.5-41.4 22.5-45 .4-1.4 1.4-4.1 2.2-6 2.5-5.9 3-7.2 6.2-16.6 3.5-10.6 9.5-33.3 11.1-41.9.5-3.3 1.2-7.1 1.5-8.5.3-1.4.8-4.5 1.1-7 .3-2.5.8-5.4 1-6.5 2.3-12 2.7-73 .6-89-1.6-12.1-2.2-15.6-2.6-16.4-.2-.3-.7-2.6-1-5.1-.3-2.5-.8-5.4-1-6.5-2.9-13.7-4.1-18.3-6.6-26.9-17.2-59.1-48.6-111-93.1-154.1C542.7 49.1 478.4 16.4 409.5 5c-3.3-.5-7.1-1.2-8.4-1.5-1.3-.2-5.6-.7-9.5-1.1-3.9-.3-8.2-.8-9.6-1.1-2.8-.5-51.6-1.4-52.1-.9z"/></svg>